<svg width="22" height="22" viewBox="0 0 22 22" fill="none" xmlns="http://www.w3.org/2000/svg">
<path d="M15.3645 0.0909424V1.18185H17.5463V2.27276H18.6373V3.36367H19.7282V4.45458H20.8191V6.6364H21.91V15.3637H20.8191V17.5455H19.7282V18.6364H18.6373V19.7273H17.5463V20.8182H15.3645V21.9091H6.63725V20.8182H4.45543V19.7273H3.36452V18.6364H2.27362V17.5455H1.18271V15.3637H0.0917969V6.6364H1.18271V4.45458H2.27362V3.36367H3.36452V2.27276H4.45543V1.18185H6.63725V0.0909424H15.3645ZM14.2736 2.27276H7.72816V3.36367H5.54634V4.45458H4.45543V5.54549H3.36452V7.72731H2.27362V14.2728H3.36452V16.4546H4.45543V17.5455H5.54634V18.6364H7.72816V19.7273H14.2736V18.6364H16.4554V17.5455H17.5463V16.4546H18.6373V14.2728H19.7282V7.72731H18.6373V5.54549H17.5463V4.45458H16.4554V3.36367H14.2736V2.27276ZM7.72816 5.54549H14.2736V7.72731H9.90998V9.90912H13.1827V12.0909H9.90998V16.4546H7.72816V5.54549Z" fill="black"/>
</svg>
